<svg width="1440" height="1383" viewBox="0 0 1440 1383" fill="none" xmlns="http://www.w3.org/2000/svg">
<mask id="mask0_14_194" style="mask-type:alpha" maskUnits="userSpaceOnUse" x="845" y="-33" width="768" height="679">
<rect x="1464.13" y="-32.7283" width="514.068" height="646.364" transform="rotate(73.2361 1464.13 -32.7283)" fill="url(#paint0_linear_14_194)"/>
</mask>
<g mask="url(#mask0_14_194)">
<path d="M1194.9 512.883C1094.62 543.089 988.845 486.286 958.638 386.01C928.432 285.733 985.235 179.956 1085.51 149.75C1185.79 119.543 1156.45 217.049 1186.65 317.325C1216.86 417.602 1295.17 482.677 1194.9 512.883Z" fill="#F722F7"/>
<g filter="url(#filter0_f_14_194)">
<path d="M1191.28 513.973C1113.65 537.355 1026.24 475.02 996.036 374.744C965.829 274.467 1004.27 174.222 1081.89 150.84C1159.51 127.457 1246.93 189.793 1277.13 290.069C1307.34 390.346 1268.9 490.591 1191.28 513.973Z" fill="#F722F7"/>
</g>
<g filter="url(#filter1_f_14_194)">
<ellipse cx="1143.82" cy="330.226" rx="189.625" ry="146.786" transform="rotate(73.2361 1143.82 330.226)" fill="#F722F7"/>
</g>
<g filter="url(#filter2_f_14_194)">
<ellipse cx="1163.73" cy="324.23" rx="189.625" ry="147.416" transform="rotate(73.2361 1163.73 324.23)" fill="#F722F7"/>
</g>
<g filter="url(#filter3_f_14_194)">
<ellipse cx="1223.45" cy="306.241" rx="189.625" ry="146.786" transform="rotate(73.2361 1223.45 306.241)" fill="#F722F7"/>
</g>
<g filter="url(#filter4_f_14_194)">
<ellipse cx="1304.28" cy="281.892" rx="159.386" ry="146.786" transform="rotate(73.2361 1304.28 281.892)" fill="#F722F7"/>
</g>
</g>
<mask id="mask1_14_194" style="mask-type:alpha" maskUnits="userSpaceOnUse" x="-324" y="-798" width="2230" height="2024">
<path d="M1905.36 10.6849C1664.63 340.476 1149.31 1324.26 1054.87 1217.16L-323.194 416.106L439.612 -797.572L1905.36 10.6849Z" fill="url(#paint1_linear_14_194)"/>
</mask>
<g mask="url(#mask1_14_194)">
<path d="M602.688 700.117C484.824 614.331 471.78 423.973 548.928 317.977C626.076 211.981 775.031 107.606 901.489 199.647C964.155 245.258 1091.81 229.782 1127.85 336.756C1164.53 445.651 1042.08 577.673 1003.16 631.143C926.012 737.139 720.552 785.903 602.688 700.117Z" fill="#7650F5"/>
<g filter="url(#filter5_f_14_194)">
<path d="M610.712 692.064C484.305 600.06 467.807 432.588 534.121 341.477C600.435 250.366 735.153 165.512 861.559 257.515C924.2 303.107 1046.31 295.19 1087.71 394.729C1129.85 496.056 1022.18 607.781 988.731 653.743C922.417 744.853 737.118 784.067 610.712 692.064Z" fill="#7650F5"/>
</g>
<g filter="url(#filter6_f_14_194)">
<path d="M606.881 689.276C465.204 586.158 455.003 387.065 536.76 274.737C618.517 162.408 779.262 53.9028 920.939 157.021C991.147 208.121 1140.79 181.691 1183.49 298.34C1226.95 417.083 1089.22 565.734 1047.98 622.398C966.226 734.727 748.559 792.394 606.881 689.276Z" fill="#7650F5"/>
</g>
<g filter="url(#filter7_f_14_194)">
<path d="M600.215 664.074C445.349 509.207 406.497 258.06 502.183 126.594C597.869 -4.87253 790.092 -82.376 960.005 41.2935C1044.21 102.578 1256.73 38.0759 1309.12 176.354C1362.45 317.116 1208.79 479.566 1160.52 545.884C1064.84 677.35 779.618 843.478 600.215 664.074Z" fill="#7650F5"/>
</g>
<g filter="url(#filter8_f_14_194)">
<path d="M580.004 567.973C397.051 434.813 362.831 150.796 456.384 22.2604C549.937 -106.275 746.667 -175.651 929.619 -42.4916C1020.28 23.4955 1166.06 54.5623 1227.19 196.968C1289.42 341.933 1136.89 499.092 1089.7 563.932C996.144 692.467 762.956 701.133 580.004 567.973Z" fill="#7650F5"/>
</g>
<g filter="url(#filter9_f_14_194)">
<path d="M546.139 464.839C357.074 327.23 320.404 35.521 416.089 -95.945C511.775 -227.411 714.005 -297.631 903.069 -160.023C996.76 -91.8316 1147.04 -59.2067 1210.7 87.2779C1275.5 236.394 1119.24 396.944 1070.97 463.263C975.281 594.729 735.203 602.447 546.139 464.839Z" fill="#7650F5"/>
</g>
<g filter="url(#filter10_f_14_194)">
<path d="M673.128 589.242C507.697 468.834 491.371 191.933 587.057 60.4672C682.743 -70.9988 872.624 -150.207 1038.06 -29.7997C1120.03 29.868 1245.03 67.3451 1294.77 203.703C1345.42 342.51 1192.37 505.404 1144.1 571.722C1048.41 703.188 838.56 709.649 673.128 589.242Z" fill="#7650F5"/>
</g>
</g>
<g opacity="0.6">
<mask id="mask2_14_194" style="mask-type:alpha" maskUnits="userSpaceOnUse" x="190" y="15" width="497" height="611">
<path d="M674.66 282.749C578.6 227.841 271.146 29.639 252.13 15.0029L190.628 292.642L281.224 408.779L514.176 511.708L578.75 625.868L686.576 409.843L674.66 282.749Z" fill="url(#paint2_linear_14_194)"/>
</mask>
<g mask="url(#mask2_14_194)">
<path d="M621.767 417.015C624.659 343.737 575.622 326.575 517.449 298.057C509.131 301.478 479.594 332.576 427.981 429.593C363.466 550.864 416.571 688.563 435.403 667.214C454.236 645.865 618.875 490.294 621.767 417.015Z" fill="black"/>
<g filter="url(#filter11_f_14_194)">
<path d="M614.813 421.062C616.999 342.021 545.375 312.207 480.923 280.638C413 255.247 434.679 358.7 379.163 462.694C309.768 592.687 399.939 702.394 420.388 679.612C440.836 656.829 612.628 500.102 614.813 421.062Z" fill="black"/>
</g>
<g filter="url(#filter12_f_14_194)">
<path d="M605.15 440.706C607.594 358.276 557.962 307.312 491.046 274.531C481.567 278.284 441.435 344.001 383.512 452.57C311.107 588.28 373.513 743.866 394.815 720.064C416.116 696.261 602.707 523.135 605.15 440.706Z" fill="black"/>
</g>
<g filter="url(#filter13_f_14_194)">
<path d="M608.385 428.162C609.898 336.156 545.281 313.07 468.372 275.429C457.608 279.472 423.369 241.717 358.918 362.05C278.354 512.466 348.614 763.091 372.566 736.843C396.518 710.594 606.872 520.167 608.385 428.162Z" fill="black"/>
</g>
<g filter="url(#filter14_f_14_194)">
<path d="M588.722 442.696C591.87 335.735 514.511 299.318 427.637 256.762C415.334 261.628 365.282 320.534 290.123 461.397C196.175 637.475 277.231 839.387 304.876 808.506C332.52 777.626 585.574 549.658 588.722 442.696Z" fill="black"/>
</g>
<g filter="url(#filter15_f_14_194)">
<path d="M584.24 399.513C587.672 283.274 420.645 211.288 326.258 165.05C312.89 170.34 333.356 305.716 251.677 458.805C149.577 650.166 237.625 869.58 267.665 836.018C297.706 802.456 580.807 515.752 584.24 399.513Z" fill="black"/>
</g>
</g>
</g>
<g opacity="0.6">
<mask id="mask3_14_194" style="mask-type:alpha" maskUnits="userSpaceOnUse" x="952" y="-83" width="468" height="543">
<path d="M1308.03 405.564C1327.75 296.691 1412.03 -59.2698 1419.49 -82.0795L1137.23 -47.4419L1057.97 76.7059L1038.65 330.65L952.568 429.607L1192.19 459.194L1308.03 405.564Z" fill="url(#paint3_linear_14_194)"/>
</mask>
<g mask="url(#mask3_14_194)">
<path d="M1163.81 400.491C1233.85 378.772 1233.67 326.819 1241.15 262.465C1235.15 255.766 1195.98 238.293 1087.31 222.001C951.459 201.635 839.363 297.633 865.772 308.265C892.18 318.897 1093.76 422.209 1163.81 400.491Z" fill="black"/>
<g filter="url(#filter16_f_14_194)">
<path d="M1157.67 395.285C1232.92 370.979 1237.13 293.513 1245.39 222.221C1246.67 149.718 1156.37 204.666 1039.82 187.021C894.12 164.965 820.777 286.568 849.075 298.245C877.374 309.922 1082.43 419.592 1157.67 395.285Z" fill="black"/>
</g>
<g filter="url(#filter17_f_14_194)">
<path d="M1135.93 392.729C1214.45 367.535 1245.94 303.745 1254.52 229.726C1247.82 222.042 1172.48 206.132 1050.81 187.743C898.721 164.757 772.864 275.49 802.409 287.631C831.954 299.772 1057.41 417.922 1135.93 392.729Z" fill="black"/>
</g>
<g filter="url(#filter18_f_14_194)">
<path d="M1148.83 391.593C1236.08 362.328 1236.28 293.711 1246.11 208.652C1238.71 199.853 1262.88 154.98 1127.94 134.362C959.266 108.589 746.434 258.43 779.169 272.254C811.904 286.077 1061.59 420.859 1148.83 391.593Z" fill="black"/>
</g>
<g filter="url(#filter19_f_14_194)">
<path d="M1128.57 377.906C1230.46 345.192 1238.98 260.117 1250.12 164.023C1241.43 154.048 1169.2 126.513 1011.34 102.649C814.004 72.8196 650.698 216.587 689.031 232.347C727.364 248.107 1026.69 410.619 1128.57 377.906Z" fill="black"/>
</g>
<g filter="url(#filter20_f_14_194)">
<path d="M1167.79 359.275C1278.51 323.735 1290.66 142.262 1302.76 37.8571C1293.32 27.0189 1172.52 91.4724 1000.95 65.5398C786.496 33.1242 609.021 189.321 650.682 206.445C692.342 223.569 1057.06 394.814 1167.79 359.275Z" fill="black"/>
</g>
</g>
</g>
<defs>
<filter id="filter0_f_14_194" x="981.728" y="141.927" width="309.711" height="380.958" filterUnits="userSpaceOnUse" color-interpolation-filters="sRGB">
<feFlood flood-opacity="0" result="BackgroundImageFix"/>
<feBlend mode="normal" in="SourceGraphic" in2="BackgroundImageFix" result="shape"/>
<feGaussianBlur stdDeviation="2" result="effect1_foregroundBlur_14_194"/>
</filter>
<filter id="filter1_f_14_194" x="978.966" y="129.747" width="329.711" height="400.958" filterUnits="userSpaceOnUse" color-interpolation-filters="sRGB">
<feFlood flood-opacity="0" result="BackgroundImageFix"/>
<feBlend mode="normal" in="SourceGraphic" in2="BackgroundImageFix" result="shape"/>
<feGaussianBlur stdDeviation="7" result="effect1_foregroundBlur_14_194"/>
</filter>
<filter id="filter2_f_14_194" x="978.312" y="103.709" width="370.836" height="441.041" filterUnits="userSpaceOnUse" color-interpolation-filters="sRGB">
<feFlood flood-opacity="0" result="BackgroundImageFix"/>
<feBlend mode="normal" in="SourceGraphic" in2="BackgroundImageFix" result="shape"/>
<feGaussianBlur stdDeviation="17" result="effect1_foregroundBlur_14_194"/>
</filter>
<filter id="filter3_f_14_194" x="998.59" y="45.7616" width="449.711" height="520.958" filterUnits="userSpaceOnUse" color-interpolation-filters="sRGB">
<feFlood flood-opacity="0" result="BackgroundImageFix"/>
<feBlend mode="normal" in="SourceGraphic" in2="BackgroundImageFix" result="shape"/>
<feGaussianBlur stdDeviation="37" result="effect1_foregroundBlur_14_194"/>
</filter>
<filter id="filter4_f_14_194" x="1026.36" y="-6.52414" width="555.831" height="576.833" filterUnits="userSpaceOnUse" color-interpolation-filters="sRGB">
<feFlood flood-opacity="0" result="BackgroundImageFix"/>
<feBlend mode="normal" in="SourceGraphic" in2="BackgroundImageFix" result="shape"/>
<feGaussianBlur stdDeviation="65" result="effect1_foregroundBlur_14_194"/>
</filter>
<filter id="filter5_f_14_194" x="491.882" y="213.848" width="609.469" height="534.712" filterUnits="userSpaceOnUse" color-interpolation-filters="sRGB">
<feFlood flood-opacity="0" result="BackgroundImageFix"/>
<feBlend mode="normal" in="SourceGraphic" in2="BackgroundImageFix" result="shape"/>
<feGaussianBlur stdDeviation="2" result="effect1_foregroundBlur_14_194"/>
</filter>
<filter id="filter6_f_14_194" x="471.296" y="101.61" width="734.572" height="655.479" filterUnits="userSpaceOnUse" color-interpolation-filters="sRGB">
<feFlood flood-opacity="0" result="BackgroundImageFix"/>
<feBlend mode="normal" in="SourceGraphic" in2="BackgroundImageFix" result="shape"/>
<feGaussianBlur stdDeviation="7" result="effect1_foregroundBlur_14_194"/>
</filter>
<filter id="filter7_f_14_194" x="430.277" y="-40.944" width="909.939" height="803.583" filterUnits="userSpaceOnUse" color-interpolation-filters="sRGB">
<feFlood flood-opacity="0" result="BackgroundImageFix"/>
<feBlend mode="normal" in="SourceGraphic" in2="BackgroundImageFix" result="shape"/>
<feGaussianBlur stdDeviation="10" result="effect1_foregroundBlur_14_194"/>
</filter>
<filter id="filter8_f_14_194" x="351.996" y="-168.422" width="943.895" height="886.568" filterUnits="userSpaceOnUse" color-interpolation-filters="sRGB">
<feFlood flood-opacity="0" result="BackgroundImageFix"/>
<feBlend mode="normal" in="SourceGraphic" in2="BackgroundImageFix" result="shape"/>
<feGaussianBlur stdDeviation="27" result="effect1_foregroundBlur_14_194"/>
</filter>
<filter id="filter9_f_14_194" x="231.118" y="-368.912" width="1129.08" height="1067.9" filterUnits="userSpaceOnUse" color-interpolation-filters="sRGB">
<feFlood flood-opacity="0" result="BackgroundImageFix"/>
<feBlend mode="normal" in="SourceGraphic" in2="BackgroundImageFix" result="shape"/>
<feGaussianBlur stdDeviation="67" result="effect1_foregroundBlur_14_194"/>
</filter>
<filter id="filter10_f_14_194" x="466.373" y="-151.195" width="900.541" height="888.343" filterUnits="userSpaceOnUse" color-interpolation-filters="sRGB">
<feFlood flood-opacity="0" result="BackgroundImageFix"/>
<feBlend mode="normal" in="SourceGraphic" in2="BackgroundImageFix" result="shape"/>
<feGaussianBlur stdDeviation="31" result="effect1_foregroundBlur_14_194"/>
</filter>
<filter id="filter11_f_14_194" x="345.799" y="269.214" width="276.602" height="420.949" filterUnits="userSpaceOnUse" color-interpolation-filters="sRGB">
<feFlood flood-opacity="0" result="BackgroundImageFix"/>
<feBlend mode="normal" in="SourceGraphic" in2="BackgroundImageFix" result="shape"/>
<feGaussianBlur stdDeviation="3.7691" result="effect1_foregroundBlur_14_194"/>
</filter>
<filter id="filter12_f_14_194" x="341.832" y="266.878" width="271.058" height="463.27" filterUnits="userSpaceOnUse" color-interpolation-filters="sRGB">
<feFlood flood-opacity="0" result="BackgroundImageFix"/>
<feBlend mode="normal" in="SourceGraphic" in2="BackgroundImageFix" result="shape"/>
<feGaussianBlur stdDeviation="3.82675" result="effect1_foregroundBlur_14_194"/>
</filter>
<filter id="filter13_f_14_194" x="302.707" y="254.283" width="324.29" height="503.056" filterUnits="userSpaceOnUse" color-interpolation-filters="sRGB">
<feFlood flood-opacity="0" result="BackgroundImageFix"/>
<feBlend mode="normal" in="SourceGraphic" in2="BackgroundImageFix" result="shape"/>
<feGaussianBlur stdDeviation="9.29354" result="effect1_foregroundBlur_14_194"/>
</filter>
<filter id="filter14_f_14_194" x="205.542" y="216.307" width="423.727" height="635.805" filterUnits="userSpaceOnUse" color-interpolation-filters="sRGB">
<feFlood flood-opacity="0" result="BackgroundImageFix"/>
<feBlend mode="normal" in="SourceGraphic" in2="BackgroundImageFix" result="shape"/>
<feGaussianBlur stdDeviation="20.2271" result="effect1_foregroundBlur_14_194"/>
</filter>
<filter id="filter15_f_14_194" x="159.396" y="120.737" width="469.208" height="763.02" filterUnits="userSpaceOnUse" color-interpolation-filters="sRGB">
<feFlood flood-opacity="0" result="BackgroundImageFix"/>
<feBlend mode="normal" in="SourceGraphic" in2="BackgroundImageFix" result="shape"/>
<feGaussianBlur stdDeviation="22.1564" result="effect1_foregroundBlur_14_194"/>
</filter>
<filter id="filter16_f_14_194" x="835.547" y="175.946" width="417.394" height="230.382" filterUnits="userSpaceOnUse" color-interpolation-filters="sRGB">
<feFlood flood-opacity="0" result="BackgroundImageFix"/>
<feBlend mode="normal" in="SourceGraphic" in2="BackgroundImageFix" result="shape"/>
<feGaussianBlur stdDeviation="3.7691" result="effect1_foregroundBlur_14_194"/>
</filter>
<filter id="filter17_f_14_194" x="790.425" y="176.959" width="471.752" height="226.936" filterUnits="userSpaceOnUse" color-interpolation-filters="sRGB">
<feFlood flood-opacity="0" result="BackgroundImageFix"/>
<feBlend mode="normal" in="SourceGraphic" in2="BackgroundImageFix" result="shape"/>
<feGaussianBlur stdDeviation="3.82675" result="effect1_foregroundBlur_14_194"/>
</filter>
<filter id="filter18_f_14_194" x="757.218" y="112.801" width="507.482" height="301.525" filterUnits="userSpaceOnUse" color-interpolation-filters="sRGB">
<feFlood flood-opacity="0" result="BackgroundImageFix"/>
<feBlend mode="normal" in="SourceGraphic" in2="BackgroundImageFix" result="shape"/>
<feGaussianBlur stdDeviation="9.29354" result="effect1_foregroundBlur_14_194"/>
</filter>
<filter id="filter19_f_14_194" x="642.958" y="58.134" width="647.619" height="364.564" filterUnits="userSpaceOnUse" color-interpolation-filters="sRGB">
<feFlood flood-opacity="0" result="BackgroundImageFix"/>
<feBlend mode="normal" in="SourceGraphic" in2="BackgroundImageFix" result="shape"/>
<feGaussianBlur stdDeviation="20.2271" result="effect1_foregroundBlur_14_194"/>
</filter>
<filter id="filter20_f_14_194" x="600.262" y="-7.69638" width="746.813" height="416.125" filterUnits="userSpaceOnUse" color-interpolation-filters="sRGB">
<feFlood flood-opacity="0" result="BackgroundImageFix"/>
<feBlend mode="normal" in="SourceGraphic" in2="BackgroundImageFix" result="shape"/>
<feGaussianBlur stdDeviation="22.1564" result="effect1_foregroundBlur_14_194"/>
</filter>
<linearGradient id="paint0_linear_14_194" x1="1841.49" y1="481.969" x2="1841.49" y2="-32.7283" gradientUnits="userSpaceOnUse">
<stop stop-color="white"/>
<stop offset="1" stop-color="white" stop-opacity="0"/>
</linearGradient>
<linearGradient id="paint1_linear_14_194" x1="617.083" y1="685.072" x2="992.569" y2="126.851" gradientUnits="userSpaceOnUse">
<stop stop-color="#C4C4C4"/>
<stop offset="1" stop-color="#C4C4C4" stop-opacity="0"/>
</linearGradient>
<linearGradient id="paint2_linear_14_194" x1="612.018" y1="415.028" x2="498.803" y2="501.079" gradientUnits="userSpaceOnUse">
<stop stop-color="#C4C4C4"/>
<stop offset="1" stop-color="#C4C4C4" stop-opacity="0"/>
</linearGradient>
<linearGradient id="paint3_linear_14_194" x1="1162.43" y1="390.637" x2="1043.54" y2="312.612" gradientUnits="userSpaceOnUse">
<stop stop-color="#C4C4C4"/>
<stop offset="1" stop-color="#C4C4C4" stop-opacity="0"/>
</linearGradient>
</defs>
</svg>
